<svg xmlns="http://www.w3.org/2000/svg" xmlns:xlink="http://www.w3.org/1999/xlink" xmlns:inkscape="http://www.inkscape.org/namespaces/inkscape" version="1.1" width="1380.3561" height="433.4351" viewBox="0 0 1380.3561 433.4351">
<g inkscape:groupmode="layer" inkscape:label="Layer 1">
<path transform="matrix(1,0,0,-1,1,432.4351)" d="M230.0165 255.2556V143.2709C230.0165 136.4026 228.7108 129.9827 226.0979 124.0112 223.4849 118.0378 219.939 112.8118 215.4586 108.3331 210.9798 103.8526 205.7162 100.3448 199.6688 97.8055 193.6216 95.2682 187.2397 93.9986 180.5187 93.9986H49.2744C42.5554 93.9986 36.2095 95.2682 30.236 97.8055 24.2646 100.3448 19.0383 103.8526 14.5579 108.3331 10.0794 112.8118 6.5336 118.0378 3.9206 124.0112 1.3076 129.9827 0 136.4026 0 143.2709V255.2556H62.9354V158.5026C62.9354 154.62 64.3167 151.2235 67.0791 148.3115 69.8417 145.3997 73.2379 143.9447 77.2702 143.9447H152.5232C156.5552 143.9447 159.9894 145.3997 162.8257 148.3115 165.6638 151.2235 167.0811 154.62 167.0811 158.5026V255.2556ZM486.4601 255.2556V93.9986H408.7434L320.9477 198.1443V93.9986H258.012V255.2556H335.5055L423.5244 151.1101V255.2556ZM578.5132 255.2556V93.9986H515.5778V255.2556ZM823.3106 255.2556V205.3114H742.0105V93.9986H679.0751V205.3114H596.4316V255.2556ZM1042.7996 255.2556V207.5519H904.1644V195.2323H1008.7586V154.2472H904.1644V141.7045H1042.7996V93.9986H841.229V255.2556ZM1254.0027 255.2556C1260.8711 255.2556 1267.293 253.9502 1273.2644 251.337 1279.2379 248.724 1284.4638 245.1784 1288.9423 240.6977 1293.423 236.2192 1296.9689 230.993 1299.5819 225.0196 1302.1948 219.0481 1303.5003 212.6282 1303.5003 205.7598V143.0478C1303.5003 136.4783 1302.1948 130.2437 1299.5819 124.346 1296.9689 118.4485 1293.423 113.2603 1288.9423 108.7798 1284.4638 104.3011 1279.2379 100.7175 1273.2644 98.0306 1267.293 95.3419 1260.8711 93.9986 1254.0027 93.9986H1163.743L1136.8678 143.4963H1226.007C1230.1886 143.4963 1233.6585 144.9513 1236.4212 147.8631 1239.1835 150.7751 1240.5648 154.1716 1240.5648 158.0542V191.202C1240.5648 195.0826 1239.1835 198.481 1236.4212 201.3911 1233.6585 204.3028 1230.1886 205.7598 1226.007 205.7598H1131.4922V93.9986H1068.5568V255.2556Z" fill="#231f20" fill-rule="evenodd"/>
<path transform="matrix(1,0,0,-1,1,432.4351)" d="M622.893 319.5164C619.852 330.9749 602.3784 339.6489 592.2729 343.7107 570.0903 352.6271 555.9202 355.3404 534.1368 367.1368 526.6817 371.1739 520.5481 375.8386 514.6226 381.4645 510.7014 385.1864 508.2999 387.8209 505.0664 392.2305 503.1615 394.8276 501.406 397.4168 499.7418 400.443 498.8894 401.9927 496.0449 408.4594 495.2633 409.4005 488.3978 405.1689 478.95 391.9351 475.2252 384.4171 470.0747 374.0213 466.8506 360.8725 467.4835 347.2515 470.1824 289.1871 535.3727 254.9469 584.943 287.4946 589.1156 290.2343 597.2074 297.0581 599.9369 300.5444 604.8312 306.7974 607.3557 309.4727 611.2202 317.308 612.4535 319.809 613.3677 322.4514 614.5075 324.9116 615.6743 324.0116 617.6364 322.2181 617.9842 320.4842 617.9034 320.4105 614.4724 313.1776 613.8615 312.0959 609.2286 303.8893 608.2764 303.3992 603.1843 296.9731L593.388 287.7494C562.1006 262.4136 516.4951 264.6383 486.754 293.2586 456.7482 322.1342 454.3067 371.6359 482.2325 403.5271 489.4903 411.8156 500.777 420.8227 511.6992 425.0327 512.2344 424.2254 512.6715 420.1792 512.9277 418.7979 513.292 416.8363 513.7798 414.8745 514.2815 413.0572 515.3077 409.3421 516.5938 405.9709 518.114 402.6954 537.2731 361.4159 600.0854 357.9769 618.4358 332.1573 622.2186 326.8346 625.9748 319.3756 625.519 310.7211 625.0686 311.5111 625.316 310.9825 625.081 312.0432 624.6584 313.9478 624.0742 318.335 622.893 319.5164ZM544.5292 431.3574C554.1613 432.0717 569.34 427.701 576.8325 424.0667 583.2969 420.9316 592.8718 415.2129 597.7616 410.1656 598.8271 409.0657 599.2262 408.6479 600.1509 407.7215 614.8854 392.9539 623.1915 374.1769 623.7731 352.3915 622.446 352.9797 619.7094 355.1522 618.2237 356.1381 607.3546 363.3483 589.8988 370.5412 576.1369 379.173 560.8809 388.7422 547.2598 403.9648 545.1435 422.9226 557.9782 420.8882 574.2374 410.7566 584.0099 403.1844L594.4107 394.4798C587.5333 406.8831 571.9881 418.0844 559.4431 424.7218 553.7837 427.7157 546.9103 430.0829 544.5292 431.3574ZM538.7434 431.2644C539.104 416.9942 543.8183 404.4197 550.389 395.3347 571.7988 365.7331 613.5466 359.727 626.4434 341.462 627.6671 339.7286 629.659 335.9608 629.4747 333.1967 629.2817 335.6872 626.1225 339.6467 624.9753 340.9656 614.1546 353.4063 576.0896 361.4655 552.2715 380.7601 543.0192 388.2552 535.5196 397.7002 531.0626 409.216 529.071 414.362 526.4974 423.3719 526.4464 429.5064 528.5891 430.6992 535.8643 431.3299 538.7434 431.2644ZM534.3968 288.4802C532.8641 289.6481 525.041 291.1431 522.4014 297.9658 519.23 306.1633 527.9848 310.7974 528.7944 311.9031 529.9407 312.0409 531.5414 313.0265 532.8632 313.4854 534.4622 314.0405 535.877 314.3852 537.5225 314.6513 546.7068 316.1387 559.5052 313.1226 562.6293 304.6876 565.4069 297.1877 558.9615 292.3858 554.5196 290.1963 545.1347 285.5696 537.5324 288.8467 534.3968 288.4802ZM515.4401 339.7796C515.4358 341.5569 511.753 349.7981 511.0855 352.713 515.7244 354.7695 520.5379 356.402 525.9195 357.5531 530.2794 358.4854 529.9492 358.6558 533.7442 357.0627 536.1678 356.0457 538.4823 355.2622 540.9323 354.2692L540.9153 340.0812C536.5029 339.8377 532.9602 339.6481 528.8511 338.7861 526.9008 338.3768 519.8516 336.6108 518.7872 335.6521L517.4904 335.3204C517.0788 336.6544 516.4019 338.8706 515.4401 339.7796ZM480.9872 354.0767C481.1808 356.6313 481.5125 356.36 484.5268 359.6125 488.5798 363.9858 496.2144 369.8838 501.7088 372.4381 502.5988 371.1132 504.017 364.8127 504.6009 362.7249L506.8071 355.5306C507.1796 354.1918 506.8735 354.5172 506.5413 353.7658 502.1209 352.2917 494.748 346.0986 491.5443 342.5842L488.5282 339.1679C487.7354 338.2543 488.4965 338.8113 487.4919 338.1681 486.9425 339.9483 483.9976 346.0323 482.5933 350.0493L481.1374 353.8607C481.1159 353.8106 481.0433 354.0093 480.9872 354.0767ZM507.7395 350.9833C508.5797 351.254 508.1179 351.1726 508.5505 350.25 508.7098 349.9104 508.974 348.9576 509.1174 348.5409 509.7458 346.7151 511.9869 340.0954 512.6868 339.1889L514.5823 334.0298C513.8773 333.3308 509.1571 330.9129 506.2017 328.2508 501.3524 323.8835 503.2123 325.2121 500.3014 321.8975 499.6466 321.1515 500.2716 321.6226 499.3705 321.1075 497.3488 323.9762 491.288 329.9737 489.4274 334.9976 492.6163 340.1841 501.2033 347.9868 507.7395 350.9833ZM489.4625 393.3967C490.5034 392.2353 491.3901 390.5025 492.3241 389.1419 493.346 387.6534 494.4424 386.1689 495.4683 384.8732 499.3333 379.9899 500.4363 379.9871 501.0086 375.6864 490.3302 370.3938 487.2336 366.2827 479.8227 359.278 479.0134 361.4125 477.8385 366.5438 477.4311 369.0941 476.7474 373.3756 485.778 389.6904 489.4625 393.3967ZM559.7614 334.4706 566.6956 331.365C565.6246 328.5198 563.8516 325.2966 562.4538 322.5909 561.0277 319.8294 558.9935 316.6954 557.8815 314.223 554.2637 316.5503 549.0465 317.9509 544.0972 318.1615L544.0907 336.854C546.8888 336.7536 549.6936 336.4597 552.3582 335.9976 554.4391 335.6368 558.0958 334.4125 559.7614 334.4706ZM573.5744 339.8343 575.5258 344.579C577.2209 344.1226 588.2817 341.4234 589.3243 340.7627 590.4842 340.0277 590.639 338.7342 592.2692 337.7653 592.7287 336.4821 595.3198 333.6917 595.3139 332.7528 595.3045 331.3174 587.3893 320.6254 585.1766 319.0776L583.6482 321.213C581.2101 324.8597 580.5422 324.7869 578.8749 326.7539 577.6339 328.2177 572.974 331.7638 570.8083 332.6136ZM520.0393 333.1851C521.1303 333.1681 527.4017 335.2788 529.6371 335.7272 532.7158 336.3446 537.8023 337.0949 540.9094 336.8134L540.9371 318.2873C537.8482 317.6986 530.5116 316.927 528.7776 314.9853L527.9323 314.7951C526.2871 317.1679 524.6104 320.4794 523.1642 323.2392 521.7043 326.0251 520.3616 329.5641 518.8116 332.1743ZM560.3632 337.216C559.1699 337.9456 554.5806 338.8158 552.8829 339.1197 550.5287 339.5409 546.0009 339.6501 544.2273 340.1583L544.0839 353.1223C546.2178 352.7178 548.7806 351.6965 550.9528 351.074 553.4161 350.3684 555.5404 349.7528 557.987 349.0744L572.2268 345.3191C572.0607 343.6988 571.1162 342.7537 571.0938 341.1918 571.0365 341.1244 570.9688 341.0303 570.9348 340.9792 570.9013 340.9288 570.8217 340.8282 570.7817 340.7658 570.7335 340.689 570.5651 340.4157 570.5169 340.3244L568.1217 334.3527C565.4911 335.2017 563.3558 336.5155 560.3632 337.216ZM502.077 318.8699C502.7238 320.0593 503.9323 321.5968 504.7739 322.5818 507.064 325.2631 512.9079 329.847 515.8885 330.8641 517.2489 328.9689 519.1248 324.1789 520.3902 321.7606 521.835 318.9997 524.0832 315.5491 525.1329 313.0637 524.281 311.9794 521.303 310.1627 520.2014 307.2277 515.3513 308.5634 503.7007 316.2957 502.077 318.8699ZM560.7337 311.9689C560.3834 313.2913 561.8608 314.8781 562.6454 316.2583L569.7074 329.739C573.7918 327.7001 581.0406 321.0826 582.5979 316.6115 577.4474 311.2033 569.8159 308.0018 568.7779 306.8008 567.6965 306.7163 566.8611 306.1636 565.8406 305.7392 564.3573 307.156 563.1109 311.5723 560.7337 311.9689ZM484.2105 325.5814C485.4694 327.0574 485.9626 330.2816 487.5256 331.7465 490.316 326.8406 494.4934 321.6019 497.8329 318.2244L495.7226 312.5979 494.7514 307.0259C493.3723 307.4227 491.0125 308.8743 489.6547 309.7137 486.8583 311.4431 487.2169 310.8866 485.4906 313.6093 484.7751 314.7372 482.7566 317.5163 482.7302 318.8738 482.6835 321.26 484.2609 323.4501 484.2105 325.5814ZM598.4748 327.4651C598.4702 325.6651 600.7289 321.728 601.1938 315.5899 601.3902 312.9917 599.7932 312.4749 598.1066 311.4162 597.3046 310.9133 593.9804 309.1343 593.5538 308.5089 591.6878 307.9049 590.527 306.8198 588.6017 306.2151 588.5019 309.524 587.7964 312.999 586.6064 315.7055 587.4146 316.7062 588.4554 317.8304 589.3931 318.8517L594.7963 325.696C595.1846 326.2717 595.5936 326.8769 595.9607 327.4277L596.9171 328.7764C597.3979 329.3082 596.903 328.896 597.5206 329.3447 598.0201 327.4294 598.1315 327.8237 598.4748 327.4651ZM578.4103 298.5511 584.9359 300.8064 584.5748 298.5503C582.103 294.1061 584.61 295.8732 579.9716 292.7857 577.9984 291.4722 575.5462 290.0775 573.1778 288.9533 570.8024 287.8257 568.2662 286.723 565.6246 285.8187 563.036 284.9332 562.233 287.5822 558.9332 288.737L559.6475 289.5758C561.8957 291.7134 562.3268 291.0878 564.9837 295.5368 567.762 295.8494 576.7801 297.4133 578.4103 298.5511ZM497.7371 305.4044 498.0609 309.5311C499.1837 311.1228 499.2287 314.0694 500.4196 315.6806 501.1812 315.3481 510.5897 306.9383 518.8643 304.3352L518.6614 298.912C511.7981 299.5914 503.4404 302.8402 497.7371 305.4044ZM498.4041 300.4858C498.3077 302.0791 498.234 301.1287 498.8081 301.3682 503.5105 299.0934 511.7596 296.6309 517.4186 295.8511 519.6067 295.5498 519.694 296.0337 520.7715 294.4086L525.5549 289.1945C524.4843 288.502 524.0633 288.5751 523.345 287.7727 519.3488 287.5266 522.03 285.1123 516.2173 287.5864 513.9771 288.54 511.3162 289.8065 509.3266 291.0121 506.605 292.6616 502.4443 295.3324 500.1029 297.2673 498.721 298.4097 499.0348 298.8088 498.4041 300.4858ZM476.4081 349.6212C477.5678 350.3795 477.3484 351.1695 478.531 352.0706 480.0881 347.4791 481.7115 343.0202 483.8244 338.7206 485.6369 335.0322 486.1321 335.9631 484.1629 332.5663 483.1381 330.7986 481.8657 328.0377 481.3801 325.9672L480.4055 323.3375C478.0176 326.1946 475.5195 338.3062 474.9792 343.0939 474.3989 348.2348 476.0566 346.811 476.4081 349.6212ZM505.0259 374.2146C506.0656 373.89 508.6131 371.5209 509.8368 370.552 515.0245 366.4429 524.7102 361.2447 525.2346 360.8019 524.0653 360.1196 519.1157 359.0799 517.2579 358.4653 514.7385 357.6325 512.4628 356.6548 510.1373 355.7631 509.2384 357.4885 504.7381 372.456 505.0259 374.2146ZM571.9649 305.3421C576.8254 307.241 581.2951 311.6968 584.1797 313.3919 584.89 310.0445 585.5168 308.4625 585.4691 304.6048 583.9832 304.0177 580.5326 303.0222 579.4798 301.9635 578.1237 301.9714 574.7043 300.7091 573.1251 300.2981 570.8903 299.7159 568.5591 299.1515 566.2196 298.9225L566.475 302.4204ZM601.9466 326.2898C601.4066 328.5935 600.4704 329.8221 599.6429 331.7791 599.0219 333.2486 599.4077 333.2659 600.0786 334.5866 600.6824 335.7751 600.6756 336.6096 601.9328 336.5952 602.1901 336.3457 608.9454 333.0232 609.4176 332.8628 608.6126 328.7701 605.9477 322.2865 604.0361 319.0136 603.4079 320.8371 602.9036 324.9496 601.9466 326.2898ZM544.1219 284.4445C547.7927 285.0712 549.8787 285.0591 553.2783 286.2887 555.2901 287.0164 555.3462 287.6641 556.9971 286.4871 558.0879 285.7099 559.3847 284.9426 560.1555 284.1803 556.5467 283.4597 547.7749 281.4661 544.0859 282.2613ZM524.1447 284.5259C524.8324 285.4698 527.0794 286.4432 528.1798 286.9095 529.7805 287.5884 531.0476 286.3823 532.967 285.9786 534.352 285.1209 538.7837 284.7305 540.828 284.4771L540.9397 282.2153C534.9623 281.772 526.4668 284.5414 524.1447 284.5259ZM477.1809 356.9298C477.193 355.2035 475.7153 354.0146 474.8686 352.3861 474.1634 353.92 474.9126 360.3237 475.6048 361.8522 475.6513 361.7793 475.7153 361.5797 475.7332 361.6271 475.7508 361.6744 475.8316 361.4536 475.8548 361.3989L476.4458 359.375C476.6179 358.6547 476.7928 357.6025 477.1809 356.9298ZM594.5349 305.2063C593.462 303.69 592.3772 303.1713 591.3003 301.7718 590.2758 300.4418 588.6099 299.7371 587.8823 298.4547L588.4875 302.3949C589.8084 303.0069 593.3222 305.1232 594.5349 305.2063ZM595.8096 338.8691 598.1443 338.1423 597.3126 336.0753C594.618 339.084 595.2458 338.6415 595.8096 338.8691ZM493.0415 304.0109C494.2695 303.5951 494.8243 303.5506 494.9793 302.0553 494.0447 302.6004 493.6221 303.1203 493.0415 304.0109" fill="#231f20" fill-rule="evenodd"/>
<path transform="matrix(1,0,0,-1,1,432.4351)" d="M1352.5313 264.7006C1356.9622 264.7006 1361.2088 263.5954 1365.2711 261.3747 1369.3449 259.1646 1372.5442 255.9886 1374.8695 251.8571 1377.1939 247.7254 1378.3561 243.398 1378.3561 238.875 1378.3561 234.3756 1377.2166 230.0947 1374.9381 226.0086 1372.648 221.9349 1369.4712 218.7581 1365.3975 216.468 1361.3125 214.1895 1357.0308 213.05 1352.5313 213.05 1348.0311 213.05 1343.7503 214.1895 1339.6649 216.468 1335.5905 218.7581 1332.414 221.9349 1330.1237 226.0086 1327.845 230.0947 1326.7055 234.3756 1326.7055 238.875 1326.7055 243.398 1327.8685 247.7254 1330.1929 251.8571 1332.5173 255.9886 1335.7168 259.1646 1339.7913 261.3747 1343.8536 263.5954 1348.1002 264.7006 1352.5313 264.7006ZM1352.554 259.5912C1348.9982 259.5912 1345.5916 258.7045 1342.3344 256.9323 1339.0778 255.1601 1336.5111 252.6165 1334.6354 249.2906 1332.7594 245.9761 1331.816 242.4886 1331.816 238.8634 1331.816 235.2498 1332.7367 231.7975 1334.5659 228.5294 1336.3963 225.2494 1338.9514 222.6943 1342.2305 220.8526 1345.5108 219.0118 1348.9517 218.0911 1352.554 218.0911 1356.1679 218.0911 1359.6087 219.0118 1362.8775 220.8526 1366.1569 222.6943 1368.7122 225.2494 1370.5534 228.5294 1372.3952 231.7975 1373.3158 235.2498 1373.3158 238.8634 1373.3158 242.4886 1372.3713 245.9761 1370.4956 249.2906 1368.6199 252.6165 1366.0532 255.1601 1362.7854 256.9323 1359.5051 258.7045 1356.0985 259.5912 1352.554 259.5912ZM1340.8615 225.0649V252.4093H1346.4088C1351.6104 252.4093 1354.5335 252.3864 1355.1548 252.3407 1356.9965 252.1908 1358.4237 251.8228 1359.4479 251.2471 1360.4601 250.6836 1361.3125 249.8085 1362.0025 248.6234 1362.6817 247.449 1363.0266 246.1377 1363.0266 244.7104 1363.0266 242.731 1362.3823 241.05 1361.0932 239.6466 1359.8045 238.242 1357.998 237.3792 1355.6727 237.0342 1356.5014 236.7235 1357.1456 236.3777 1357.5951 236.0098 1358.0436 235.6413 1358.6649 234.9391 1359.4479 233.9155 1359.6552 233.6391 1360.3224 232.5339 1361.4729 230.5774L1364.684 225.0649H1357.7786L1355.512 229.5187C1353.9813 232.4996 1352.7156 234.3869 1351.7141 235.1585 1350.701 235.9293 1349.4353 236.3207 1347.893 236.3207H1346.4544V225.0649ZM1346.4544 240.6708H1348.6989C1351.8984 240.6708 1353.8892 240.7972 1354.6599 241.0387 1355.4315 241.2808 1356.0415 241.7066 1356.4899 242.3166 1356.9386 242.9266 1357.1572 243.6165 1357.1572 244.3995 1357.1572 245.1475 1356.9386 245.8267 1356.5014 246.4132 1356.0642 247.0005 1355.4428 247.426 1354.6369 247.6789 1353.8313 247.9326 1351.8519 248.059 1348.6989 248.059H1346.4544Z" fill="#231f20" fill-rule="evenodd"/>
<path transform="matrix(1,0,0,-1,1,432.4351)" d="M823.4303 48.3814H792.762V34.6071H823.4303C825.7643 34.6071 827.3687 34.924 828.2656 35.5397 829.1605 36.1556 829.6089 37.2379 829.6089 38.7686V44.2199C829.6089 45.7308 829.1605 46.7949 828.2656 47.4287 827.3687 48.0645 825.7643 48.3814 823.4303 48.3814ZM823.4303 25.0877H792.762V10.4162H823.4303C825.9874 10.4162 827.7055 10.7889 828.6007 11.5543 829.4975 12.3197 829.946 13.663 829.946 15.6044V19.9534C829.946 21.8948 829.4975 23.22 828.6007 23.9675 827.7055 24.713 825.9874 25.0877 823.4303 25.0877ZM779.5474 0V57.7891H829.067C833.6214 57.7891 836.926 56.8942 838.9789 55.1004 841.0139 53.3285 842.0403 50.4723 842.0403 46.5718V39.534C842.0403 36.7534 841.1814 34.5311 839.4653 32.8887 837.7469 31.2284 835.2836 30.202 832.0725 29.7916 835.395 29.361 837.9723 28.167 839.7819 26.2437 841.5918 24.3224 842.4887 21.801 842.4887 18.7036V11.3491C842.4887 7.5042 841.0876 4.6658 838.2694 2.8003 835.4509 .9329 831.1955 0 825.4474 0ZM881.911 57.7891V10.8626H920.2133V57.7891H933.6529V13.6451C933.6529 8.3812 932.6625 4.7775 930.6853 2.874 928.724 .9527 924.9171 0 919.2804 0H882.788C877.2072 0 873.4363 .9527 871.4571 2.874 869.4598 4.7775 868.4714 8.3812 868.4714 13.6451V57.7891ZM1013.2988 47.7099H975.4452V35.2786H1011.4892C1017.1636 35.2786 1020.9705 34.308 1022.9678 32.3847 1024.9649 30.4432 1025.9535 26.8597 1025.9535 21.5957V13.6451C1025.9535 8.4192 1024.9649 4.8155 1022.9678 2.8942 1020.9705 .9706 1017.1636 0 1011.4892 0H975.78C970.1254 0 966.2987 .9706 964.3195 2.8942 962.3222 4.8155 961.3338 8.4192 961.3338 13.6451V15.2317L973.205 17.695V10.8626H1014.0823V24.0792H978.0202C972.4017 24.0792 968.6126 25.0498 966.6354 26.9711 964.6741 28.8947 963.6857 32.4782 963.6857 37.7243V44.1261C963.6857 49.3702 964.6741 52.9557 966.6354 54.8952 968.6126 56.8185 972.4017 57.7891 978.0202 57.7891H1010.8355C1016.2667 57.7891 1020.0178 56.8565 1022.0729 55.0089 1024.1436 53.1411 1025.17 49.8563 1025.17 45.1148V43.901L1013.2988 41.1026ZM1053.8413 0V57.7891H1067.2813V35.3903H1109.2788V57.7891H1122.8301V0H1109.2788V24.8624H1067.2813V0ZM1152.3784 0V57.7891H1211.5108V47.933H1165.818V35.0535H1192.4722V25.1994H1165.818V10.8626H1212.071V0ZM1286.977 47.7099H1249.1235V35.2786H1285.1674C1290.8418 35.2786 1294.6487 34.308 1296.6458 32.3847 1298.643 30.4432 1299.6315 26.8597 1299.6315 21.5957V13.6451C1299.6315 8.4192 1298.643 4.8155 1296.6458 2.8942 1294.6487 .9706 1290.8418 0 1285.1674 0H1249.4583C1243.8037 0 1239.9769 .9706 1237.9978 2.8942 1236.0005 4.8155 1235.012 8.4192 1235.012 13.6451V15.2317L1246.8832 17.695V10.8626H1287.7605V24.0792H1251.6985C1246.08 24.0792 1242.2908 25.0498 1240.3137 26.9711 1238.3524 28.8947 1237.3639 32.4782 1237.3639 37.7243V44.1261C1237.3639 49.3702 1238.3524 52.9557 1240.3137 54.8952 1242.2908 56.8185 1246.08 57.7891 1251.6985 57.7891H1284.5137C1289.945 57.7891 1293.696 56.8565 1295.7509 55.0089 1297.8218 53.1411 1298.8483 49.8563 1298.8483 45.1148V43.901L1286.977 41.1026Z" fill="#231f20" fill-rule="evenodd"/>
</g>
</svg>
